solid ASCII
  facet normal 4.472136e-01 -0.000000e+00 8.944272e-01
    outer loop
      vertex   1.409600e+02 -1.742897e+02 1.460000e+01
      vertex   1.429600e+02 -1.762897e+02 1.360000e+01
      vertex   1.409600e+02 -1.090117e+02 1.460000e+01
    endloop
  endfacet
  facet normal 4.472136e-01 0.000000e+00 8.944272e-01
    outer loop
      vertex   1.409600e+02 -1.090117e+02 1.460000e+01
      vertex   1.429600e+02 -1.762897e+02 1.360000e+01
      vertex   1.429600e+02 -1.070117e+02 1.360000e+01
    endloop
  endfacet
  facet normal 0.000000e+00 -4.472136e-01 8.944272e-01
    outer loop
      vertex   6.210655e+01 -1.742897e+02 1.460000e+01
      vertex   6.095908e+01 -1.762897e+02 1.360000e+01
      vertex   1.409600e+02 -1.742897e+02 1.460000e+01
    endloop
  endfacet
  facet normal 0.000000e+00 -4.472136e-01 8.944272e-01
    outer loop
      vertex   1.409600e+02 -1.742897e+02 1.460000e+01
      vertex   6.095908e+01 -1.762897e+02 1.360000e+01
      vertex   1.429600e+02 -1.762897e+02 1.360000e+01
    endloop
  endfacet
  facet normal -3.860780e-01 -2.257072e-01 8.944272e-01
    outer loop
      vertex   6.210655e+01 -1.742897e+02 1.460000e+01
      vertex   2.741765e+01 -1.149535e+02 1.460000e+01
      vertex   6.095908e+01 -1.762897e+02 1.360000e+01
    endloop
  endfacet
  facet normal -3.860780e-01 -2.257072e-01 8.944272e-01
    outer loop
      vertex   6.095908e+01 -1.762897e+02 1.360000e+01
      vertex   2.741765e+01 -1.149535e+02 1.460000e+01
      vertex   2.467738e+01 -1.142289e+02 1.360000e+01
    endloop
  endfacet
  facet normal -2.240702e-01 3.870304e-01 8.944272e-01
    outer loop
      vertex   3.714359e+01 -1.070117e+02 1.360000e+01
      vertex   2.467738e+01 -1.142289e+02 1.360000e+01
      vertex   3.768077e+01 -1.090117e+02 1.460000e+01
    endloop
  endfacet
  facet normal -2.240702e-01 3.870304e-01 8.944272e-01
    outer loop
      vertex   3.768077e+01 -1.090117e+02 1.460000e+01
      vertex   2.467738e+01 -1.142289e+02 1.360000e+01
      vertex   2.741765e+01 -1.149535e+02 1.460000e+01
    endloop
  endfacet
  facet normal -2.778081e-09 4.472136e-01 8.944272e-01
    outer loop
      vertex   1.429600e+02 -1.070117e+02 1.360000e+01
      vertex   3.714359e+01 -1.070117e+02 1.360000e+01
      vertex   1.409600e+02 -1.090117e+02 1.460000e+01
    endloop
  endfacet
  facet normal -2.778081e-09 4.472136e-01 8.944272e-01
    outer loop
      vertex   1.409600e+02 -1.090117e+02 1.460000e+01
      vertex   3.714359e+01 -1.070117e+02 1.360000e+01
      vertex   3.768077e+01 -1.090117e+02 1.460000e+01
    endloop
  endfacet
  facet normal -5.010362e-01 8.654263e-01 0.000000e+00
    outer loop
      vertex   2.467738e+01 -1.142289e+02 1.360000e+01
      vertex   3.714359e+01 -1.070117e+02 1.360000e+01
      vertex   2.467738e+01 -1.142289e+02 1.160000e+01
    endloop
  endfacet
  facet normal -5.010362e-01 8.654263e-01 0.000000e+00
    outer loop
      vertex   2.467738e+01 -1.142289e+02 1.160000e+01
      vertex   3.714359e+01 -1.070117e+02 1.360000e+01
      vertex   3.714359e+01 -1.070117e+02 1.160000e+01
    endloop
  endfacet
  facet normal -6.211978e-09 1.000000e+00 0.000000e+00
    outer loop
      vertex   3.714359e+01 -1.070117e+02 1.360000e+01
      vertex   1.429600e+02 -1.070117e+02 1.360000e+01
      vertex   3.714359e+01 -1.070117e+02 1.160000e+01
    endloop
  endfacet
  facet normal -6.211978e-09 1.000000e+00 0.000000e+00
    outer loop
      vertex   3.714359e+01 -1.070117e+02 1.160000e+01
      vertex   1.429600e+02 -1.070117e+02 1.360000e+01
      vertex   1.429600e+02 -1.070117e+02 1.160000e+01
    endloop
  endfacet
  facet normal 1.000000e+00 0.000000e+00 0.000000e+00
    outer loop
      vertex   1.429600e+02 -1.070117e+02 1.360000e+01
      vertex   1.429600e+02 -1.762897e+02 1.360000e+01
      vertex   1.429600e+02 -1.070117e+02 1.160000e+01
    endloop
  endfacet
  facet normal 1.000000e+00 0.000000e+00 0.000000e+00
    outer loop
      vertex   1.429600e+02 -1.070117e+02 1.160000e+01
      vertex   1.429600e+02 -1.762897e+02 1.360000e+01
      vertex   1.429600e+02 -1.762897e+02 1.160000e+01
    endloop
  endfacet
  facet normal 0.000000e+00 -0.000000e+00 1.000000e+00
    outer loop
      vertex   1.409600e+02 -1.742897e+02 1.460000e+01
      vertex   1.409600e+02 -1.090117e+02 1.460000e+01
      vertex   6.210655e+01 -1.742897e+02 1.460000e+01
    endloop
  endfacet
  facet normal 0.000000e+00 -0.000000e+00 1.000000e+00
    outer loop
      vertex   6.210655e+01 -1.742897e+02 1.460000e+01
      vertex   1.409600e+02 -1.090117e+02 1.460000e+01
      vertex   3.768077e+01 -1.090117e+02 1.460000e+01
    endloop
  endfacet
  facet normal 0.000000e+00 0.000000e+00 1.000000e+00
    outer loop
      vertex   6.210655e+01 -1.742897e+02 1.460000e+01
      vertex   3.768077e+01 -1.090117e+02 1.460000e+01
      vertex   2.741765e+01 -1.149535e+02 1.460000e+01
    endloop
  endfacet
  facet normal -0.000000e+00 -1.000000e+00 -0.000000e+00
    outer loop
      vertex   1.429600e+02 -1.762897e+02 1.360000e+01
      vertex   6.095908e+01 -1.762897e+02 1.360000e+01
      vertex   1.429600e+02 -1.762897e+02 1.160000e+01
    endloop
  endfacet
  facet normal 0.000000e+00 -1.000000e+00 0.000000e+00
    outer loop
      vertex   1.429600e+02 -1.762897e+02 1.160000e+01
      vertex   6.095908e+01 -1.762897e+02 1.360000e+01
      vertex   6.095908e+01 -1.762897e+02 1.160000e+01
    endloop
  endfacet
  facet normal -8.632968e-01 -5.046966e-01 -0.000000e+00
    outer loop
      vertex   6.095908e+01 -1.762897e+02 1.360000e+01
      vertex   2.467738e+01 -1.142289e+02 1.360000e+01
      vertex   6.095908e+01 -1.762897e+02 1.160000e+01
    endloop
  endfacet
  facet normal -8.632968e-01 -5.046966e-01 0.000000e+00
    outer loop
      vertex   6.095908e+01 -1.762897e+02 1.160000e+01
      vertex   2.467738e+01 -1.142289e+02 1.360000e+01
      vertex   2.467738e+01 -1.142289e+02 1.160000e+01
    endloop
  endfacet
  facet normal 0.000000e+00 0.000000e+00 -1.000000e+00
    outer loop
      vertex   2.467738e+01 -1.142289e+02 1.160000e+01
      vertex   3.714359e+01 -1.070117e+02 1.160000e+01
      vertex   6.095908e+01 -1.762897e+02 1.160000e+01
    endloop
  endfacet
  facet normal 0.000000e+00 0.000000e+00 -1.000000e+00
    outer loop
      vertex   6.095908e+01 -1.762897e+02 1.160000e+01
      vertex   3.714359e+01 -1.070117e+02 1.160000e+01
      vertex   1.429600e+02 -1.070117e+02 1.160000e+01
    endloop
  endfacet
  facet normal 0.000000e+00 0.000000e+00 -1.000000e+00
    outer loop
      vertex   6.095908e+01 -1.762897e+02 1.160000e+01
      vertex   1.429600e+02 -1.070117e+02 1.160000e+01
      vertex   1.429600e+02 -1.762897e+02 1.160000e+01
    endloop
  endfacet
endsolid
